<svg width="133" height="27" viewBox="0 0 133 27" fill="none" xmlns="http://www.w3.org/2000/svg">
<path fill-rule="evenodd" clip-rule="evenodd" d="M68.2488 12.7588C67.1542 12.7588 66.3651 13.1181 65.565 13.4843V21.769C66.3314 21.8421 66.7707 21.8421 67.4978 21.8421C70.1251 21.8421 70.4853 20.6374 70.4853 18.9554V14.9986C70.4853 13.7564 70.0736 12.7588 68.2488 12.7588ZM50.7999 12.3066C48.977 12.3066 48.561 13.3086 48.561 14.5495V15.2468H53.0364V14.5495C53.0364 13.3086 52.6204 12.3066 50.7999 12.3066ZM16.9979 20.9298C16.9979 21.9115 17.4606 22.4214 18.4816 22.4214C19.5768 22.4214 20.2253 22.0638 21.0248 21.6965V19.7313H18.63C17.4962 19.7313 16.9979 19.9426 16.9979 20.9298ZM85.2222 12.7588C83.3962 12.7588 82.7636 13.7564 82.7636 14.9986V19.5316C82.7636 20.7768 83.3962 21.7776 85.2222 21.7776C87.0433 21.7776 87.6808 20.7768 87.6808 19.5316V14.9986C87.6802 13.7564 87.0427 12.7588 85.2222 12.7588ZM8.04952 26.0127H2.68195V13.0051H0V8.52305H2.68256V5.83111C2.68256 2.17407 4.19626 0 8.49866 0H12.0807V4.48329H9.84178C8.16671 4.48329 8.05627 5.1099 8.05627 6.27894L8.04952 8.52243H12.1053L11.631 13.0045H8.04952V26.0127ZM26.3936 26.0465H21.92L21.7268 24.9137C19.6842 26.0465 17.8612 26.2301 16.6586 26.2301C13.3778 26.2301 11.6316 24.0358 11.6316 21.0011C11.6316 17.4208 13.6693 16.143 17.3145 16.143H21.0248V15.369C21.0248 13.5414 20.8156 13.0051 18.0085 13.0051H13.4189L13.8675 8.52305H18.8841C25.0432 8.52305 26.3936 10.4711 26.3936 15.4053V26.0465ZM41.6061 13.3338C38.8223 12.8558 38.0228 12.7508 36.6833 12.7508C34.2775 12.7508 33.5504 13.2822 33.5504 15.3278V19.1974C33.5504 21.2431 34.2775 21.777 36.6833 21.777C38.0228 21.777 38.8223 21.6701 41.6061 21.1903V25.5624C39.1677 26.1097 37.5792 26.2535 36.2366 26.2535C30.4739 26.2535 28.1834 23.2194 28.1834 18.8362V15.6964C28.1834 11.3096 30.4739 8.26995 36.2366 8.26995C37.5792 8.26995 39.1677 8.41431 41.6061 8.96413V13.3338ZM58.4034 18.8362H48.5603V19.1974C48.5603 21.2431 49.288 21.777 51.6933 21.777C53.8555 21.777 55.1753 21.6701 57.9542 21.1903V25.5624C55.2741 26.1097 53.8776 26.2535 51.2484 26.2535C45.4851 26.2535 43.1934 23.2194 43.1934 18.8362V15.2461C43.1934 11.411 44.8936 8.26995 50.7993 8.26995C56.705 8.26995 58.4034 11.3747 58.4034 15.2461V18.8362ZM75.8517 18.9191C75.8517 23.1555 74.6423 26.2455 67.3162 26.2455C64.6704 26.2455 63.1187 26.0127 60.1987 25.563V1.34659L65.5644 0.450295V8.92113C66.7241 8.48987 68.2249 8.27056 69.5907 8.27056C74.9571 8.27056 75.851 10.6793 75.851 14.5501V18.9191H75.8517ZM93.0521 19.0113C93.0521 22.6659 91.5451 26.2105 85.24 26.2105C78.9318 26.2105 77.3966 22.6659 77.3966 19.0113V15.4827C77.3966 11.8262 78.9318 8.28101 85.24 8.28101C91.5451 8.28101 93.0521 11.8262 93.0521 15.4827V19.0113ZM110.241 19.0113C110.241 22.6659 108.732 26.2105 102.428 26.2105C96.1199 26.2105 94.5848 22.6659 94.5848 19.0113V15.4827C94.5848 11.8262 96.1199 8.28101 102.428 8.28101C108.732 8.28101 110.241 11.8262 110.241 15.4827V19.0113ZM127.881 26.0127H122.064L117.145 17.7913V26.0127H111.778V1.34597L117.145 0.449681V16.3292L122.064 8.52305H127.881L122.511 17.0418L127.881 26.0127ZM102.41 12.7588C100.587 12.7588 99.9542 13.7564 99.9542 14.9986V19.5316C99.9542 20.7768 100.587 21.7776 102.41 21.7776C104.23 21.7776 104.874 20.7768 104.874 19.5316V14.9986C104.874 13.7564 104.23 12.7588 102.41 12.7588ZM130.944 22.9448C131.848 22.9448 132.568 23.6826 132.568 24.604C132.568 25.5397 131.847 26.2695 130.937 26.2695C130.032 26.2695 129.297 25.5397 129.297 24.604C129.297 23.6826 130.032 22.9448 130.937 22.9448H130.944ZM130.937 23.2028C130.209 23.2028 129.613 23.83 129.613 24.604C129.613 25.3922 130.21 26.0115 130.944 26.0115C131.679 26.0188 132.266 25.3922 132.266 24.6114C132.266 23.8306 131.679 23.2028 130.944 23.2028H130.937ZM130.629 25.5698H130.334V23.7182C130.489 23.6967 130.636 23.6752 130.857 23.6752C131.137 23.6752 131.32 23.7342 131.432 23.8147C131.541 23.8964 131.599 24.0211 131.599 24.1974C131.599 24.4419 131.438 24.5887 131.24 24.6483V24.6624C131.401 24.6925 131.511 24.8387 131.549 25.1109C131.591 25.399 131.636 25.5089 131.665 25.5691H131.356C131.313 25.5089 131.268 25.34 131.231 25.0961C131.188 24.8608 131.069 24.7724 130.834 24.7724H130.629V25.5698H130.629ZM130.629 24.5451H130.842C131.084 24.5451 131.29 24.456 131.29 24.2269C131.29 24.0647 131.173 23.9031 130.842 23.9031C130.746 23.9031 130.679 23.9105 130.629 23.9172V24.5451Z" fill="#C4C4C4"/>
</svg>
