<svg width="418" height="435" viewBox="0 0 418 435" fill="none" xmlns="http://www.w3.org/2000/svg">
<g clip-path="url(#clip0_878_101302)">
<rect x="67" y="183" width="252" height="252" rx="90" fill="#FCBC14"/>
<path d="M166.065 278.286V306.286H159.585V283.486H153.985V278.286H166.065ZM196.169 300.406H191.609V306.286H185.289V300.406H170.209V296.046L183.409 278.286H190.209L177.969 295.126H185.489V289.886H191.609V295.126H196.169V300.406ZM209.707 306.766C207.387 306.766 205.32 306.193 203.507 305.046C201.694 303.9 200.267 302.246 199.227 300.086C198.214 297.9 197.707 295.3 197.707 292.286C197.707 289.273 198.214 286.686 199.227 284.526C200.267 282.34 201.694 280.673 203.507 279.526C205.32 278.38 207.387 277.806 209.707 277.806C212.027 277.806 214.094 278.38 215.907 279.526C217.72 280.673 219.134 282.34 220.147 284.526C221.187 286.686 221.707 289.273 221.707 292.286C221.707 295.3 221.187 297.9 220.147 300.086C219.134 302.246 217.72 303.9 215.907 305.046C214.094 306.193 212.027 306.766 209.707 306.766ZM209.707 301.286C211.414 301.286 212.747 300.553 213.707 299.086C214.694 297.62 215.187 295.353 215.187 292.286C215.187 289.22 214.694 286.953 213.707 285.486C212.747 284.02 211.414 283.286 209.707 283.286C208.027 283.286 206.694 284.02 205.707 285.486C204.747 286.953 204.267 289.22 204.267 292.286C204.267 295.353 204.747 297.62 205.707 299.086C206.694 300.553 208.027 301.286 209.707 301.286Z" fill="white"/>
<path d="M147.846 340.75V342.286H135.966V325.486H147.486V327.022H137.742V332.998H146.43V334.51H137.742V340.75H147.846ZM167.405 329.566C168.989 329.566 170.229 330.022 171.125 330.934C172.037 331.846 172.493 333.19 172.493 334.966V342.286H170.789V335.134C170.789 333.822 170.469 332.822 169.829 332.134C169.205 331.446 168.317 331.102 167.165 331.102C165.853 331.102 164.821 331.51 164.069 332.326C163.317 333.126 162.941 334.238 162.941 335.662V342.286H161.237V335.134C161.237 333.822 160.917 332.822 160.277 332.134C159.653 331.446 158.757 331.102 157.589 331.102C156.293 331.102 155.261 331.51 154.493 332.326C153.741 333.126 153.365 334.238 153.365 335.662V342.286H151.661V329.662H153.293V331.966C153.741 331.198 154.365 330.606 155.165 330.19C155.965 329.774 156.885 329.566 157.925 329.566C158.981 329.566 159.893 329.79 160.661 330.238C161.445 330.686 162.029 331.35 162.413 332.23C162.877 331.398 163.541 330.75 164.405 330.286C165.285 329.806 166.285 329.566 167.405 329.566ZM183.618 329.566C184.802 329.566 185.874 329.838 186.834 330.382C187.794 330.91 188.546 331.662 189.09 332.638C189.634 333.614 189.906 334.726 189.906 335.974C189.906 337.238 189.634 338.358 189.09 339.334C188.546 340.31 187.794 341.07 186.834 341.614C185.89 342.142 184.818 342.406 183.618 342.406C182.594 342.406 181.666 342.198 180.834 341.782C180.018 341.35 179.346 340.726 178.818 339.91V346.942H177.114V329.662H178.746V332.158C179.258 331.326 179.93 330.686 180.762 330.238C181.61 329.79 182.562 329.566 183.618 329.566ZM183.498 340.894C184.378 340.894 185.178 340.694 185.898 340.294C186.618 339.878 187.178 339.294 187.578 338.542C187.994 337.79 188.202 336.934 188.202 335.974C188.202 335.014 187.994 334.166 187.578 333.43C187.178 332.678 186.618 332.094 185.898 331.678C185.178 331.262 184.378 331.054 183.498 331.054C182.602 331.054 181.794 331.262 181.074 331.678C180.37 332.094 179.81 332.678 179.394 333.43C178.994 334.166 178.794 335.014 178.794 335.974C178.794 336.934 178.994 337.79 179.394 338.542C179.81 339.294 180.37 339.878 181.074 340.294C181.794 340.694 182.602 340.894 183.498 340.894ZM193.38 324.478H195.084V342.286H193.38V324.478ZM204.985 342.406C203.769 342.406 202.673 342.134 201.697 341.59C200.721 341.03 199.953 340.262 199.393 339.286C198.833 338.31 198.553 337.206 198.553 335.974C198.553 334.742 198.833 333.638 199.393 332.662C199.953 331.686 200.721 330.926 201.697 330.382C202.673 329.838 203.769 329.566 204.985 329.566C206.201 329.566 207.297 329.838 208.273 330.382C209.249 330.926 210.009 331.686 210.553 332.662C211.113 333.638 211.393 334.742 211.393 335.974C211.393 337.206 211.113 338.31 210.553 339.286C210.009 340.262 209.249 341.03 208.273 341.59C207.297 342.134 206.201 342.406 204.985 342.406ZM204.985 340.894C205.881 340.894 206.681 340.694 207.385 340.294C208.105 339.878 208.665 339.294 209.065 338.542C209.465 337.79 209.665 336.934 209.665 335.974C209.665 335.014 209.465 334.158 209.065 333.406C208.665 332.654 208.105 332.078 207.385 331.678C206.681 331.262 205.881 331.054 204.985 331.054C204.089 331.054 203.281 331.262 202.561 331.678C201.857 332.078 201.297 332.654 200.881 333.406C200.481 334.158 200.281 335.014 200.281 335.974C200.281 336.934 200.481 337.79 200.881 338.542C201.297 339.294 201.857 339.878 202.561 340.294C203.281 340.694 204.089 340.894 204.985 340.894ZM225.129 329.662L218.817 343.798C218.305 344.982 217.713 345.822 217.041 346.318C216.369 346.814 215.561 347.062 214.617 347.062C214.009 347.062 213.441 346.966 212.913 346.774C212.385 346.582 211.929 346.294 211.545 345.91L212.337 344.638C212.977 345.278 213.745 345.598 214.641 345.598C215.217 345.598 215.705 345.438 216.105 345.118C216.521 344.798 216.905 344.254 217.257 343.486L217.809 342.262L212.169 329.662H213.945L218.697 340.39L223.449 329.662H225.129ZM238.169 336.502H227.609C227.705 337.814 228.209 338.878 229.121 339.694C230.033 340.494 231.185 340.894 232.577 340.894C233.361 340.894 234.081 340.758 234.737 340.486C235.393 340.198 235.961 339.782 236.441 339.238L237.401 340.342C236.841 341.014 236.137 341.526 235.289 341.878C234.457 342.23 233.537 342.406 232.529 342.406C231.233 342.406 230.081 342.134 229.073 341.59C228.081 341.03 227.305 340.262 226.745 339.286C226.185 338.31 225.905 337.206 225.905 335.974C225.905 334.742 226.169 333.638 226.697 332.662C227.241 331.686 227.977 330.926 228.905 330.382C229.849 329.838 230.905 329.566 232.073 329.566C233.241 329.566 234.289 329.838 235.217 330.382C236.145 330.926 236.873 331.686 237.401 332.662C237.929 333.622 238.193 334.726 238.193 335.974L238.169 336.502ZM232.073 331.03C230.857 331.03 229.833 331.422 229.001 332.206C228.185 332.974 227.721 333.982 227.609 335.23H236.561C236.449 333.982 235.977 332.974 235.145 332.206C234.329 331.422 233.305 331.03 232.073 331.03ZM252.653 336.502H242.093C242.189 337.814 242.693 338.878 243.605 339.694C244.517 340.494 245.669 340.894 247.061 340.894C247.845 340.894 248.565 340.758 249.221 340.486C249.877 340.198 250.445 339.782 250.925 339.238L251.885 340.342C251.325 341.014 250.621 341.526 249.773 341.878C248.941 342.23 248.021 342.406 247.013 342.406C245.717 342.406 244.565 342.134 243.557 341.59C242.565 341.03 241.789 340.262 241.229 339.286C240.669 338.31 240.389 337.206 240.389 335.974C240.389 334.742 240.653 333.638 241.181 332.662C241.725 331.686 242.461 330.926 243.389 330.382C244.333 329.838 245.389 329.566 246.557 329.566C247.725 329.566 248.773 329.838 249.701 330.382C250.629 330.926 251.357 331.686 251.885 332.662C252.413 333.622 252.677 334.726 252.677 335.974L252.653 336.502ZM246.557 331.03C245.341 331.03 244.317 331.422 243.485 332.206C242.669 332.974 242.205 333.982 242.093 335.23H251.045C250.933 333.982 250.461 332.974 249.629 332.206C248.813 331.422 247.789 331.03 246.557 331.03Z" fill="white"/>
<rect opacity="0.715053" y="25" width="198" height="198" rx="70" fill="#F990B6"/>
<g clip-path="url(#clip1_878_101302)">
<path d="M63.7048 104.4C66.1582 104.8 68.0382 105.72 69.3448 107.16C70.6515 108.573 71.3048 110.333 71.3048 112.44C71.3048 114.067 70.8782 115.573 70.0248 116.96C69.1715 118.32 67.8648 119.413 66.1048 120.24C64.3715 121.067 62.2382 121.48 59.7048 121.48C57.7315 121.48 55.7848 121.227 53.8648 120.72C51.9715 120.187 50.3582 119.44 49.0248 118.48L51.5448 113.52C52.6115 114.32 53.8382 114.947 55.2248 115.4C56.6382 115.827 58.0782 116.04 59.5448 116.04C61.1715 116.04 62.4515 115.733 63.3848 115.12C64.3182 114.48 64.7848 113.587 64.7848 112.44C64.7848 110.147 63.0382 109 59.5448 109H56.5848V104.72L62.3448 98.2H50.4248V93H70.0248V97.2L63.7048 104.4ZM85.8967 121.48C83.5767 121.48 81.5101 120.907 79.6967 119.76C77.8834 118.613 76.4567 116.96 75.4167 114.8C74.4034 112.613 73.8967 110.013 73.8967 107C73.8967 103.987 74.4034 101.4 75.4167 99.24C76.4567 97.0533 77.8834 95.3867 79.6967 94.24C81.5101 93.0933 83.5767 92.52 85.8967 92.52C88.2167 92.52 90.2834 93.0933 92.0967 94.24C93.9101 95.3867 95.3234 97.0533 96.3367 99.24C97.3767 101.4 97.8967 103.987 97.8967 107C97.8967 110.013 97.3767 112.613 96.3367 114.8C95.3234 116.96 93.9101 118.613 92.0967 119.76C90.2834 120.907 88.2167 121.48 85.8967 121.48ZM85.8967 116C87.6034 116 88.9367 115.267 89.8967 113.8C90.8834 112.333 91.3767 110.067 91.3767 107C91.3767 103.933 90.8834 101.667 89.8967 100.2C88.9367 98.7333 87.6034 98 85.8967 98C84.2167 98 82.8834 98.7333 81.8967 100.2C80.9367 101.667 80.4567 103.933 80.4567 107C80.4567 110.067 80.9367 112.333 81.8967 113.8C82.8834 115.267 84.2167 116 85.8967 116ZM112.645 121.48C110.325 121.48 108.258 120.907 106.445 119.76C104.632 118.613 103.205 116.96 102.165 114.8C101.152 112.613 100.645 110.013 100.645 107C100.645 103.987 101.152 101.4 102.165 99.24C103.205 97.0533 104.632 95.3867 106.445 94.24C108.258 93.0933 110.325 92.52 112.645 92.52C114.965 92.52 117.032 93.0933 118.845 94.24C120.658 95.3867 122.072 97.0533 123.085 99.24C124.125 101.4 124.645 103.987 124.645 107C124.645 110.013 124.125 112.613 123.085 114.8C122.072 116.96 120.658 118.613 118.845 119.76C117.032 120.907 114.965 121.48 112.645 121.48ZM112.645 116C114.352 116 115.685 115.267 116.645 113.8C117.632 112.333 118.125 110.067 118.125 107C118.125 103.933 117.632 101.667 116.645 100.2C115.685 98.7333 114.352 98 112.645 98C110.965 98 109.632 98.7333 108.645 100.2C107.685 101.667 107.205 103.933 107.205 107C107.205 110.067 107.685 112.333 108.645 113.8C109.632 115.267 110.965 116 112.645 116ZM147.51 109.44H140.55V116.24H135.39V109.44H128.47V104.56H135.39V97.76H140.55V104.56H147.51V109.44Z" fill="white"/>
<path d="M60.3912 140.2C62.5352 140.2 64.2152 140.712 65.4312 141.736C66.6472 142.76 67.2552 144.168 67.2552 145.96C67.2552 147.752 66.6472 149.16 65.4312 150.184C64.2152 151.192 62.5352 151.696 60.3912 151.696H55.8792V157H54.1032V140.2H60.3912ZM60.3432 150.136C62.0072 150.136 63.2792 149.776 64.1592 149.056C65.0392 148.32 65.4792 147.288 65.4792 145.96C65.4792 144.6 65.0392 143.56 64.1592 142.84C63.2792 142.104 62.0072 141.736 60.3432 141.736H55.8792V150.136H60.3432ZM72.0393 146.848C72.4393 146 73.0313 145.36 73.8153 144.928C74.6153 144.496 75.5993 144.28 76.7673 144.28V145.936L76.3593 145.912C75.0312 145.912 73.9913 146.32 73.2393 147.136C72.4873 147.952 72.1113 149.096 72.1113 150.568V157H70.4073V144.376H72.0393V146.848ZM84.8954 157.12C83.6794 157.12 82.5834 156.848 81.6074 156.304C80.6314 155.744 79.8634 154.976 79.3034 154C78.7434 153.024 78.4634 151.92 78.4634 150.688C78.4634 149.456 78.7434 148.352 79.3034 147.376C79.8634 146.4 80.6314 145.64 81.6074 145.096C82.5834 144.552 83.6794 144.28 84.8954 144.28C86.1114 144.28 87.2074 144.552 88.1834 145.096C89.1594 145.64 89.9194 146.4 90.4634 147.376C91.0234 148.352 91.3034 149.456 91.3034 150.688C91.3034 151.92 91.0234 153.024 90.4634 154C89.9194 154.976 89.1594 155.744 88.1834 156.304C87.2074 156.848 86.1114 157.12 84.8954 157.12ZM84.8954 155.608C85.7914 155.608 86.5914 155.408 87.2954 155.008C88.0154 154.592 88.5754 154.008 88.9754 153.256C89.3754 152.504 89.5754 151.648 89.5754 150.688C89.5754 149.728 89.3754 148.872 88.9754 148.12C88.5754 147.368 88.0154 146.792 87.2954 146.392C86.5914 145.976 85.7914 145.768 84.8954 145.768C83.9994 145.768 83.1914 145.976 82.4714 146.392C81.7674 146.792 81.2074 147.368 80.7914 148.12C80.3914 148.872 80.1914 149.728 80.1914 150.688C80.1914 151.648 80.3914 152.504 80.7914 153.256C81.2074 154.008 81.7674 154.592 82.4714 155.008C83.1914 155.408 83.9994 155.608 84.8954 155.608ZM92.9103 161.776C92.3823 161.776 91.8862 161.704 91.4222 161.56C90.9422 161.432 90.5502 161.232 90.2462 160.96L90.8462 159.664C91.3422 160.096 91.9982 160.312 92.8143 160.312C93.4863 160.312 93.9983 160.112 94.3503 159.712C94.7183 159.312 94.9023 158.72 94.9023 157.936V144.376H96.6063V157.936C96.6063 159.12 96.2863 160.056 95.6463 160.744C95.0063 161.432 94.0943 161.776 92.9103 161.776ZM95.7663 141.592C95.4143 141.592 95.1183 141.472 94.8783 141.232C94.6383 140.992 94.5183 140.704 94.5183 140.368C94.5183 140.048 94.6383 139.768 94.8783 139.528C95.1183 139.288 95.4143 139.168 95.7663 139.168C96.1183 139.168 96.4143 139.288 96.6543 139.528C96.8943 139.752 97.0143 140.024 97.0143 140.344C97.0143 140.696 96.8943 140.992 96.6543 141.232C96.4143 141.472 96.1183 141.592 95.7663 141.592ZM112.36 151.216H101.8C101.896 152.528 102.4 153.592 103.312 154.408C104.224 155.208 105.376 155.608 106.768 155.608C107.552 155.608 108.272 155.472 108.928 155.2C109.584 154.912 110.152 154.496 110.632 153.952L111.592 155.056C111.032 155.728 110.328 156.24 109.48 156.592C108.648 156.944 107.728 157.12 106.72 157.12C105.424 157.12 104.272 156.848 103.264 156.304C102.272 155.744 101.496 154.976 100.936 154C100.376 153.024 100.096 151.92 100.096 150.688C100.096 149.456 100.36 148.352 100.888 147.376C101.432 146.4 102.168 145.64 103.096 145.096C104.04 144.552 105.096 144.28 106.264 144.28C107.432 144.28 108.48 144.552 109.408 145.096C110.336 145.64 111.064 146.4 111.592 147.376C112.12 148.336 112.384 149.44 112.384 150.688L112.36 151.216ZM106.264 145.744C105.048 145.744 104.024 146.136 103.192 146.92C102.376 147.688 101.912 148.696 101.8 149.944H110.752C110.64 148.696 110.168 147.688 109.336 146.92C108.52 146.136 107.496 145.744 106.264 145.744ZM121.085 157.12C119.837 157.12 118.717 156.848 117.725 156.304C116.749 155.76 115.981 155 115.421 154.024C114.861 153.032 114.581 151.92 114.581 150.688C114.581 149.456 114.861 148.352 115.421 147.376C115.981 146.4 116.749 145.64 117.725 145.096C118.717 144.552 119.837 144.28 121.085 144.28C122.173 144.28 123.141 144.496 123.989 144.928C124.853 145.344 125.533 145.96 126.029 146.776L124.757 147.64C124.341 147.016 123.813 146.552 123.173 146.248C122.533 145.928 121.837 145.768 121.085 145.768C120.173 145.768 119.349 145.976 118.613 146.392C117.893 146.792 117.325 147.368 116.909 148.12C116.509 148.872 116.309 149.728 116.309 150.688C116.309 151.664 116.509 152.528 116.909 153.28C117.325 154.016 117.893 154.592 118.613 155.008C119.349 155.408 120.173 155.608 121.085 155.608C121.837 155.608 122.533 155.456 123.173 155.152C123.813 154.848 124.341 154.384 124.757 153.76L126.029 154.624C125.533 155.44 124.853 156.064 123.989 156.496C123.125 156.912 122.157 157.12 121.085 157.12ZM136.165 156.232C135.845 156.52 135.445 156.744 134.965 156.904C134.501 157.048 134.013 157.12 133.501 157.12C132.317 157.12 131.405 156.8 130.765 156.16C130.125 155.52 129.805 154.616 129.805 153.448V145.816H127.549V144.376H129.805V141.616H131.509V144.376H135.349V145.816H131.509V153.352C131.509 154.104 131.693 154.68 132.061 155.08C132.445 155.464 132.989 155.656 133.693 155.656C134.045 155.656 134.381 155.6 134.701 155.488C135.037 155.376 135.325 155.216 135.565 155.008L136.165 156.232ZM142.651 157.12C141.627 157.12 140.643 156.976 139.699 156.688C138.771 156.384 138.043 156.008 137.515 155.56L138.283 154.216C138.811 154.632 139.475 154.976 140.275 155.248C141.075 155.504 141.907 155.632 142.771 155.632C143.923 155.632 144.771 155.456 145.315 155.104C145.875 154.736 146.155 154.224 146.155 153.568C146.155 153.104 146.003 152.744 145.699 152.488C145.395 152.216 145.011 152.016 144.547 151.888C144.083 151.744 143.467 151.608 142.699 151.48C141.675 151.288 140.851 151.096 140.227 150.904C139.603 150.696 139.067 150.352 138.619 149.872C138.187 149.392 137.971 148.728 137.971 147.88C137.971 146.824 138.411 145.96 139.291 145.288C140.171 144.616 141.395 144.28 142.963 144.28C143.779 144.28 144.595 144.392 145.411 144.616C146.227 144.824 146.899 145.104 147.427 145.456L146.683 146.824C145.643 146.104 144.403 145.744 142.963 145.744C141.875 145.744 141.051 145.936 140.491 146.32C139.947 146.704 139.675 147.208 139.675 147.832C139.675 148.312 139.827 148.696 140.131 148.984C140.451 149.272 140.843 149.488 141.307 149.632C141.771 149.76 142.411 149.896 143.227 150.04C144.235 150.232 145.043 150.424 145.651 150.616C146.259 150.808 146.779 151.136 147.211 151.6C147.643 152.064 147.859 152.704 147.859 153.52C147.859 154.624 147.395 155.504 146.467 156.16C145.555 156.8 144.283 157.12 142.651 157.12Z" fill="white"/>
</g>
<rect opacity="0.715053" x="166.773" width="251" height="251" rx="90" fill="#7D41F5"/>
<g clip-path="url(#clip2_878_101302)">
<path d="M258.055 95V123H251.575V100.2H245.975V95H258.055ZM288.159 117.12H283.599V123H277.279V117.12H262.199V112.76L275.399 95H282.199L269.959 111.84H277.479V106.6H283.599V111.84H288.159V117.12ZM301.657 112L297.897 115.92V123H291.457V95H297.897V108.08L310.297 95H317.497L305.897 107.48L318.177 123H310.617L301.657 112ZM337.421 111.44H330.461V118.24H325.301V111.44H318.381V106.56H325.301V99.76H330.461V106.56H337.421V111.44Z" fill="white"/>
<path d="M268.021 159.144C265.845 159.144 264.149 158.52 262.933 157.272C261.717 156.024 261.109 154.208 261.109 151.824V142.2H262.885V151.752C262.885 153.704 263.325 155.16 264.205 156.12C265.085 157.08 266.357 157.56 268.021 157.56C269.701 157.56 270.981 157.08 271.861 156.12C272.741 155.16 273.181 153.704 273.181 151.752V142.2H274.909V151.824C274.909 154.208 274.301 156.024 273.085 157.272C271.885 158.52 270.197 159.144 268.021 159.144ZM283.285 159.12C282.261 159.12 281.277 158.976 280.333 158.688C279.405 158.384 278.677 158.008 278.149 157.56L278.917 156.216C279.445 156.632 280.109 156.976 280.909 157.248C281.709 157.504 282.541 157.632 283.405 157.632C284.557 157.632 285.405 157.456 285.949 157.104C286.509 156.736 286.789 156.224 286.789 155.568C286.789 155.104 286.637 154.744 286.333 154.488C286.029 154.216 285.645 154.016 285.181 153.888C284.717 153.744 284.101 153.608 283.333 153.48C282.309 153.288 281.485 153.096 280.861 152.904C280.237 152.696 279.701 152.352 279.253 151.872C278.821 151.392 278.605 150.728 278.605 149.88C278.605 148.824 279.045 147.96 279.925 147.288C280.805 146.616 282.029 146.28 283.597 146.28C284.413 146.28 285.229 146.392 286.045 146.616C286.861 146.824 287.533 147.104 288.061 147.456L287.317 148.824C286.277 148.104 285.037 147.744 283.597 147.744C282.509 147.744 281.685 147.936 281.125 148.32C280.581 148.704 280.309 149.208 280.309 149.832C280.309 150.312 280.461 150.696 280.765 150.984C281.085 151.272 281.477 151.488 281.941 151.632C282.405 151.76 283.045 151.896 283.861 152.04C284.869 152.232 285.677 152.424 286.285 152.616C286.893 152.808 287.413 153.136 287.845 153.6C288.277 154.064 288.493 154.704 288.493 155.52C288.493 156.624 288.029 157.504 287.101 158.16C286.189 158.8 284.917 159.12 283.285 159.12ZM302.635 153.216H292.075C292.171 154.528 292.675 155.592 293.587 156.408C294.499 157.208 295.651 157.608 297.043 157.608C297.827 157.608 298.547 157.472 299.203 157.2C299.859 156.912 300.427 156.496 300.907 155.952L301.867 157.056C301.307 157.728 300.603 158.24 299.755 158.592C298.923 158.944 298.003 159.12 296.995 159.12C295.699 159.12 294.547 158.848 293.539 158.304C292.547 157.744 291.771 156.976 291.211 156C290.651 155.024 290.371 153.92 290.371 152.688C290.371 151.456 290.635 150.352 291.163 149.376C291.707 148.4 292.443 147.64 293.371 147.096C294.315 146.552 295.371 146.28 296.539 146.28C297.707 146.28 298.755 146.552 299.683 147.096C300.611 147.64 301.339 148.4 301.867 149.376C302.395 150.336 302.659 151.44 302.659 152.688L302.635 153.216ZM296.539 147.744C295.323 147.744 294.299 148.136 293.467 148.92C292.651 149.688 292.187 150.696 292.075 151.944H301.027C300.915 150.696 300.443 149.688 299.611 148.92C298.795 148.136 297.771 147.744 296.539 147.744ZM307.759 148.848C308.159 148 308.751 147.36 309.535 146.928C310.335 146.496 311.319 146.28 312.487 146.28V147.936L312.079 147.912C310.751 147.912 309.711 148.32 308.959 149.136C308.207 149.952 307.831 151.096 307.831 152.568V159H306.127V146.376H307.759V148.848ZM319.05 159.12C318.026 159.12 317.042 158.976 316.098 158.688C315.17 158.384 314.442 158.008 313.914 157.56L314.682 156.216C315.21 156.632 315.874 156.976 316.674 157.248C317.474 157.504 318.306 157.632 319.17 157.632C320.322 157.632 321.17 157.456 321.714 157.104C322.274 156.736 322.554 156.224 322.554 155.568C322.554 155.104 322.402 154.744 322.098 154.488C321.794 154.216 321.41 154.016 320.946 153.888C320.482 153.744 319.866 153.608 319.098 153.48C318.074 153.288 317.25 153.096 316.626 152.904C316.002 152.696 315.466 152.352 315.018 151.872C314.586 151.392 314.37 150.728 314.37 149.88C314.37 148.824 314.81 147.96 315.69 147.288C316.57 146.616 317.794 146.28 319.362 146.28C320.178 146.28 320.994 146.392 321.81 146.616C322.626 146.824 323.298 147.104 323.826 147.456L323.082 148.824C322.042 148.104 320.802 147.744 319.362 147.744C318.274 147.744 317.45 147.936 316.89 148.32C316.346 148.704 316.074 149.208 316.074 149.832C316.074 150.312 316.226 150.696 316.53 150.984C316.85 151.272 317.242 151.488 317.706 151.632C318.17 151.76 318.81 151.896 319.626 152.04C320.634 152.232 321.442 152.424 322.05 152.616C322.658 152.808 323.178 153.136 323.61 153.6C324.042 154.064 324.258 154.704 324.258 155.52C324.258 156.624 323.794 157.504 322.866 158.16C321.954 158.8 320.682 159.12 319.05 159.12Z" fill="white"/>
</g>
</g>
<defs>
<clipPath id="clip0_878_101302">
<rect width="417.773" height="435" fill="white"/>
</clipPath>
<clipPath id="clip1_878_101302">
<rect width="101" height="82" fill="white" transform="translate(49 83)"/>
</clipPath>
<clipPath id="clip2_878_101302">
<rect width="93.627" height="82" fill="white" transform="translate(245.459 85)"/>
</clipPath>
</defs>
</svg>
