<svg width="98" height="27" viewBox="0 0 98 27" fill="none" xmlns="http://www.w3.org/2000/svg">
<path fill-rule="evenodd" clip-rule="evenodd" d="M13.4036 25.0341C11.9373 25.2957 10.4451 25.3741 8.90152 25.583L4.1934 11.5764V26.1841C2.72703 26.3408 1.38927 26.5499 0 26.7589V0H3.91058L9.26164 15.1828V0H13.4036V25.0341ZM21.5076 9.79942C23.1028 9.79942 25.5468 9.721 27.0132 9.721V13.902C25.1865 13.902 23.0513 13.902 21.5076 13.9804V20.1999C23.926 20.0431 26.3444 19.8339 28.7883 19.7555V23.7795L17.3912 24.6943V0H28.7883V4.18109H21.5076V9.79942ZM44.0957 4.18119H39.8251V23.4141C38.4358 23.4141 37.0466 23.4141 35.709 23.4663V4.18119H31.4384V0H44.0959L44.0957 4.18119ZM50.7846 9.51205H56.4189V13.693H50.7846V23.179H46.7453V0H58.2455V4.18109H50.7846V9.51205ZM64.9344 19.5204C67.2756 19.5725 69.6423 19.7558 71.9321 19.8862V24.0151C68.2533 23.7797 64.5743 23.5449 60.8182 23.4663V0H64.9344V19.5204ZM75.4052 24.3025C76.7173 24.3811 78.1065 24.4595 79.4443 24.616V0H75.4052V24.3025ZM97.479 0L92.2563 12.7262L97.479 26.7589C95.9352 26.5499 94.3916 26.2624 92.8479 26.0011L89.8895 18.2662L86.8797 25.3741C85.3873 25.1125 83.9466 25.0341 82.4547 24.8251L87.7544 12.5693L82.9691 0H87.3939L90.0952 7.02946L92.9767 0H97.479Z" fill="#C4C4C4"/>
</svg>
