<svg width="58" height="58" viewBox="0 0 58 58" fill="none" xmlns="http://www.w3.org/2000/svg">
<path fill-rule="evenodd" clip-rule="evenodd" d="M29 58C45.0163 58 58 45.0163 58 29C58 12.9837 45.0163 0 29 0C12.9837 0 0 12.9837 0 29C0 45.0163 12.9837 58 29 58Z" fill="#20C997"/>
<path d="M28.103 40.36C26.643 40.36 25.193 40.17 23.753 39.79C22.313 39.39 21.093 38.83 20.093 38.11L21.983 34.39C22.783 34.97 23.713 35.43 24.773 35.77C25.833 36.11 26.903 36.28 27.983 36.28C29.203 36.28 30.163 36.04 30.863 35.56C31.563 35.08 31.913 34.42 31.913 33.58C31.913 32.78 31.603 32.15 30.983 31.69C30.363 31.23 29.363 31 27.983 31H25.763V27.79L31.613 21.16L32.153 22.9H21.143V19H35.843V22.15L30.023 28.78L27.563 27.37H28.973C31.553 27.37 33.503 27.95 34.823 29.11C36.143 30.27 36.803 31.76 36.803 33.58C36.803 34.76 36.493 35.87 35.873 36.91C35.253 37.93 34.303 38.76 33.023 39.4C31.743 40.04 30.103 40.36 28.103 40.36Z" fill="white"/>
</svg>
