<svg width="81" height="25" viewBox="0 0 81 25" fill="none" xmlns="http://www.w3.org/2000/svg">
<path fill-rule="evenodd" clip-rule="evenodd" d="M35.0015 24.555H28.4133L32.5309 0.431062H39.1197L35.0015 24.555ZM22.8709 0.431062L16.59 17.0237L15.8468 13.4507L15.8474 13.452L13.6306 2.60315C13.6306 2.60315 13.3626 0.431062 10.5054 0.431062H0.121841L0 0.839537C0 0.839537 3.17531 1.46935 6.89146 3.59691L12.6153 24.5557H19.4797L29.9614 0.431062H22.8709ZM74.6905 24.555H80.7399L75.4656 0.430416H70.1696C67.7239 0.430416 67.1283 2.22823 67.1283 2.22823L57.3025 24.555H64.1702L65.5437 20.9717H73.9189L74.6905 24.555ZM67.441 16.0215L70.9026 6.99378L72.8501 16.0215H67.441ZM57.8176 6.23232L58.7578 1.05184C58.7578 1.05184 55.8566 0 52.8323 0C49.5629 0 41.7989 1.36223 41.7989 7.98625C41.7989 14.2186 50.9112 14.296 50.9112 17.5696C50.9112 20.8432 42.7377 20.2567 40.0403 18.1923L39.0609 23.609C39.0609 23.609 42.0026 24.9712 46.4972 24.9712C50.9931 24.9712 57.7756 22.752 57.7756 16.712C57.7756 10.4397 48.5814 9.85569 48.5814 7.12865C48.5821 4.40096 54.9983 4.75136 57.8176 6.23232Z" fill="#C4C4C4"/>
</svg>
